<svg xmlns="http://www.w3.org/2000/svg" xmlns:xlink="http://www.w3.org/1999/xlink" width="2416" height="609" viewBox="0 0 2416 609">
  <defs>
    <clipPath id="clip-Logo_Module_TiengAnh_White">
      <rect width="2416" height="609"/>
    </clipPath>
  </defs>
  <g id="Logo_Module_TiengAnh_White" clip-path="url(#clip-Logo_Module_TiengAnh_White)">
    <g id="Group_42288" data-name="Group 42288" transform="translate(2 -0.5)">
      <g id="Group_42287" data-name="Group 42287" transform="translate(33.816 -0.25)">
        <path id="Path_63024" data-name="Path 63024" d="M700.184,411h-40l75.5-179.75h40L852.434,411h-42l-16.5-43h-78.25Zm27.75-74.75h53.75l-27.25-68.75Z" fill="#fff"/>
        <path id="Path_63025" data-name="Path 63025" d="M1000.433,231.25V262h-62q-16.5,0-26.25,7.875t-12.5,17.5a145.241,145.241,0,0,0-4,17.75,105.6,105.6,0,0,0-1.25,16.125v6q0,3.5.25,7.625t1,10a54.054,54.054,0,0,0,3.367,12.625,45.321,45.321,0,0,0,7.359,12.5q6.234,6.5,13.465,8.125a87.8,87.8,0,0,0,18.707,1.625h61.856V411H937.147q-17.941,0-30.519-3.125T881.339,395.25A71.455,71.455,0,0,1,859.784,364a119.376,119.376,0,0,1-6.351-39.5V313.75a89.488,89.488,0,0,1,2-19,134,134,0,0,1,5-17.5,73.287,73.287,0,0,1,7-14.5,86.915,86.915,0,0,1,11.75-14,46.785,46.785,0,0,1,18.75-11.375,112.986,112.986,0,0,1,20.625-4.875,150.491,150.491,0,0,1,19.375-1.25Z" fill="#fff"/>
        <path id="Path_63026" data-name="Path 63026" d="M1163.931,231.25V262h-62q-16.5,0-26.25,7.875t-12.5,17.5a145.207,145.207,0,0,0-4,17.75,105.594,105.594,0,0,0-1.25,16.125v6q0,3.5.25,7.625t1,10a54.057,54.057,0,0,0,3.367,12.625A45.327,45.327,0,0,0,1069.9,370q6.234,6.5,13.465,8.125a87.8,87.8,0,0,0,18.707,1.625h61.856V411h-63.286q-17.942,0-30.519-3.125t-25.289-12.625A71.463,71.463,0,0,1,1023.282,364a119.376,119.376,0,0,1-6.351-39.5V313.75a89.484,89.484,0,0,1,2-19,133.988,133.988,0,0,1,5-17.5,73.28,73.28,0,0,1,7-14.5,86.906,86.906,0,0,1,11.75-14,46.784,46.784,0,0,1,18.75-11.375,112.981,112.981,0,0,1,20.625-4.875,150.49,150.49,0,0,1,19.375-1.25Z" transform="translate(-0.111)" fill="#fff"/>
        <path id="Path_63027" data-name="Path 63027" d="M1185.929,281.5q5.748-19.746,15.5-29.25t18-13.875a80.143,80.143,0,0,1,17.375-6.75,111.409,111.409,0,0,1,16.375-3.125,164.72,164.72,0,0,1,16.75-.75q18,0,28.375,2.625t14.25,3.875a71.667,71.667,0,0,1,11,5.125,48.433,48.433,0,0,1,12.625,9.875q12.75,12.252,18.5,31.875a142.057,142.057,0,0,1,5.75,40.125,146.373,146.373,0,0,1-5.75,40.375Q1348.925,381.752,1335.8,394a67.483,67.483,0,0,1-30.875,16.5,148.052,148.052,0,0,1-34.5,4.25,136.664,136.664,0,0,1-32.25-3.75,59.144,59.144,0,0,1-9.625-2.625,89.58,89.58,0,0,1-10.875-5.125,64.629,64.629,0,0,1-13.125-9.625,58.021,58.021,0,0,1-11.25-14.375q-4.629-8.25-8.75-22.75t-4.125-35.75A137.027,137.027,0,0,1,1185.929,281.5Zm38.5,12.93a108.823,108.823,0,0,0-3,26.445q0,14.227,4.875,33.559t19.375,24.453q14.5,5.115,24.5,5.113a63.846,63.846,0,0,0,18.75-2.746q21.5-7.734,26.75-32.683a101.207,101.207,0,0,0,3.5-26.946q0-14.472-2.375-23.578t-3.25-11.6a55.194,55.194,0,0,0-3.75-7.61,39.584,39.584,0,0,0-8.125-9.855,30.434,30.434,0,0,0-11.125-6.613,73.063,73.063,0,0,0-10.625-2.618,62.6,62.6,0,0,0-28,2Q1232.429,268.732,1224.429,294.43Z" transform="translate(-0.166)" fill="#fff"/>
        <path id="Path_63028" data-name="Path 63028" d="M1384.928,340.25v-109h37.75v108q0,5,.5,10.125a111.485,111.485,0,0,0,1.875,11.75,26.61,26.61,0,0,0,18.125,20.25q8,2.877,20,2.875,16,0,24.625-5a26.5,26.5,0,0,0,12-14.375q3.375-9.375,3.375-25.625v-108h37.5v109q0,7-.5,14t-1.25,13.75q-2.01,11.25-14.422,28.125T1462.928,413q-49.911,0-61.575-15.625t-13.293-21.5q-1.628-5.871-2.382-9.375a38.4,38.4,0,0,1-.75-8V340.25Z" transform="translate(-0.227)" fill="#fff"/>
        <path id="Path_63029" data-name="Path 63029" d="M1616.175,411h-38.75V231.25h48l73.25,129.5-1.5-129.5h38V411h-43.5l-77-135.75Z" transform="translate(-0.288)" fill="#fff"/>
        <path id="Path_63030" data-name="Path 63030" d="M1849.923,411h-39.25V263h-57.5V231.75h154.75V263h-58Z" transform="translate(-0.343)" fill="#fff"/>
        <path id="Path_63031" data-name="Path 63031" d="M1926.421,231.25h39.5V411h-39.5Z" transform="translate(-0.369)" fill="#fff"/>
        <path id="Path_63032" data-name="Path 63032" d="M2042.418,411h-38.75V231.25h48l73.25,129.5-1.5-129.5h38V411h-43.5l-77-135.75Z" transform="translate(-0.482)" fill="#fff"/>
        <path id="Path_63033" data-name="Path 63033" d="M2313.166,378.25v-42h-50.25V304.5h88.75V411h-95.211q-4.74-.75-8.1-1.125a52.8,52.8,0,0,1-7.6-1.5q-4.242-1.125-11.715-3.875t-18.82-12.5q-11.344-9.75-17.7-28a119.273,119.273,0,0,1-6.355-39.5V313.75a94.888,94.888,0,0,1,3-24.5,99.269,99.269,0,0,1,8-20.75,72.058,72.058,0,0,1,11.875-16.625q6.873-7.125,20.25-13.875t41.375-6.75h81V262.5h-81q-16.5,0-25.75,7.625t-13,20.625a104.526,104.526,0,0,0-3.75,29v2.75q0,26.25,8.875,41t33.625,14.75Z" transform="translate(-0.482)" fill="#fff"/>
      </g>
      <g id="icon" transform="translate(0 -0.5)">
        <path id="Path_1" data-name="Path 1" d="M439.178,55.512a280.284,280.284,0,0,0-258.237,0L310.05,184.621,429.379,303.95,558.507,174.822A281.222,281.222,0,0,0,439.178,55.512Z" fill="#ff9500"/>
        <path id="Path_2" data-name="Path 2" d="M310,423.374,190.689,304.066,61.56,433.173A280,280,0,0,0,439.126,552.5Z" fill="#4cd964"/>
        <path id="Path_3" data-name="Path 3" d="M558.508,174.936,429.379,304.064l-119.33,119.31L439.179,552.5A280.015,280.015,0,0,0,558.488,174.936Z" fill="#007aff"/>
        <path id="Path_4" data-name="Path 4" d="M180.889,55.512C43.741,126.866-9.674,295.851,61.56,433.058L190.688,303.95,310,184.62Z" fill="#ff3b30"/>
        <rect id="Rectangle_12" data-name="Rectangle 12" width="168.747" height="168.747" transform="translate(190.711 304.001) rotate(-45)" fill="#393a3d"/>
        <path id="Path_5" data-name="Path 5" d="M225.625,338.962,62.18,432.514,190.689,304.026Z" opacity="0.15" style="isolation: isolate"/>
        <path id="Path_6" data-name="Path 6" d="M275.08,219.557,181.528,56.112,310.037,184.621Z" opacity="0.15" style="isolation: isolate"/>
        <path id="Path_7" data-name="Path 7" d="M394.442,269.034l163.445-93.552L429.379,303.991Z" opacity="0.15" style="isolation: isolate"/>
        <path id="Path_8" data-name="Path 8" d="M344.989,388.437l93.552,163.445L310.031,423.374Z" opacity="0.15" style="isolation: isolate"/>
        <path id="Path_10" data-name="Path 10" d="M310.024,206.956l97.052,97.054-97.052,97.029L212.993,304.01Z" fill="#fff"/>
      </g>
    </g>
  </g>
</svg>